<svg width="166" height="125" viewBox="0 0 166 125" fill="none" xmlns="http://www.w3.org/2000/svg">
<rect width="166" height="124.93" rx="16" fill="#1E1E1E"/>
<path d="M152.751 1.7276C153.081 1.366 153.653 1.25844 154.104 1.47334L154.816 1.81238C155.378 2.08 155.523 2.72941 155.124 3.18685L136.551 24.4539C136.107 24.9628 135.238 24.9599 134.834 24.4482L133.99 23.3814C133.726 23.0473 133.749 22.5939 134.047 22.2668L152.751 1.7276Z" fill="#D32626"/>
<path d="M134.248 41.1649C134.572 40.7753 135.146 40.6754 135.586 40.9322L136.562 41.5025C137.073 41.8005 137.201 42.4557 136.839 42.9179L122.78 60.8786C122.381 61.3893 121.59 61.411 121.171 60.9228L119.999 59.5569C119.696 59.2031 119.693 58.6921 119.994 58.33L134.248 41.1649Z" fill="#D32626"/>
<path d="M157.803 4.55925C158.139 4.19052 158.726 4.08677 159.179 4.31604L159.881 4.67113C160.424 4.94582 160.558 5.58134 160.169 6.03136L144.711 23.875C144.279 24.3734 143.437 24.3877 143.017 23.9037L142.134 22.885C141.844 22.55 141.857 22.0779 142.165 21.7393L157.803 4.55925Z" fill="#D32626"/>
<path d="M141.941 40.8441C142.267 40.4507 142.849 40.353 143.29 40.6177L144.444 41.3116C144.945 41.6125 145.068 42.2594 144.712 42.7177L131.362 59.9008C130.969 60.4069 130.19 60.4377 129.765 59.964L128.392 58.4332C128.075 58.0799 128.067 57.5587 128.373 57.1903L141.941 40.8441Z" fill="#D32626"/>
<path d="M133.669 23.6989C133.665 22.9208 134.119 22.2145 134.829 21.8971C136.14 21.311 137.619 22.2839 137.602 23.7206L137.394 41.525C137.382 42.5106 136.585 43.3044 135.599 43.3119C134.595 43.3196 133.774 42.5093 133.768 41.5049L133.669 23.6989Z" fill="#D32626"/>
<path d="M119.924 60.3257C119.923 59.907 120.055 59.4961 120.301 59.1524C121.428 57.5772 123.883 58.3302 123.876 60.2491L123.643 123.125C123.639 124.116 122.837 124.934 121.847 124.957C120.851 124.981 120.041 124.191 120.039 123.195L119.924 60.3257Z" fill="#D32626"/>
<path d="M141.869 23.0828C141.864 22.3048 142.319 21.5984 143.029 21.2811C144.339 20.6949 145.819 21.6678 145.802 23.1045L145.593 40.9089C145.582 41.8945 144.785 42.6883 143.799 42.6958C142.794 42.7036 141.973 41.8932 141.968 40.8889L141.869 23.0828Z" fill="#D32626"/>
<path d="M128.122 58.2309C128.122 57.8221 128.248 57.4205 128.483 57.0815C129.596 55.478 132.082 56.22 132.075 58.1538L131.849 123.116C131.845 124.106 131.043 124.925 130.052 124.948C129.056 124.972 128.246 124.182 128.244 123.186L128.122 58.2309Z" fill="#D32626"/>
</svg>
